<svg width="64" height="64" viewBox="0 0 64 64" fill="none" xmlns="http://www.w3.org/2000/svg">
  <defs>
    <linearGradient id="markGradient" x1="10" y1="8" x2="56" y2="58" gradientUnits="userSpaceOnUse">
      <stop stop-color="#8FE6C4"/>
      <stop offset="1" stop-color="#7B61FF"/>
    </linearGradient>
    <linearGradient id="shineGradient" x1="16" y1="8" x2="52" y2="42" gradientUnits="userSpaceOnUse">
      <stop stop-color="#FFFFFF" stop-opacity="0.72"/>
      <stop offset="1" stop-color="#FFFFFF" stop-opacity="0"/>
    </linearGradient>
  </defs>
  <rect x="5" y="5" width="54" height="54" rx="14" fill="url(#markGradient)"/>
  <rect x="5.75" y="5.75" width="52.5" height="52.5" rx="13.25" stroke="#FFFFFF" stroke-opacity="0.48" stroke-width="1.5"/>
  <path d="M18 40V25.2C18 22.9 19.45 21.6 21.45 21.6C23.05 21.6 24.08 22.32 24.78 23.7C26.32 22.22 28.28 21.5 30.45 21.5C33.18 21.5 35.3 22.58 36.45 24.62C38.08 22.5 40.38 21.5 43.02 21.5C48.08 21.5 51 24.88 51 30.35V40H43.62V31.35C43.62 28.92 42.62 27.62 40.72 27.62C38.8 27.62 37.58 29.08 37.58 31.48V40H30.2V31.35C30.2 28.92 29.22 27.62 27.32 27.62C25.42 27.62 24.18 29.08 24.18 31.48V40H18Z" fill="white"/>
  <path d="M12 14C23 10.2 35.6 10.8 48.7 15.9C38.5 14.9 26.8 16.6 14 21L12 14Z" fill="url(#shineGradient)"/>
</svg>
